<?xml version="1.0" encoding="utf-8"?>
<!-- Generator: Adobe Illustrator 22.1.0, SVG Export Plug-In . SVG Version: 6.00 Build 0)  -->
<svg version="1.1" id="clover" xmlns="http://www.w3.org/2000/svg" xmlns:xlink="http://www.w3.org/1999/xlink" x="0px" y="0px"
	 viewBox="0 0 970 980" style="enable-background:new 0 0 970 980;" xml:space="preserve">
<style type="text/css">
	.st0{fill:#B9D400;}
</style>
<g>
	<path class="st0" d="M692.3,30.6C637.5-16.1,556-7.7,505.7,44.2L486,64.5l-19.7-20.3C416.1-7.7,334.5-16.1,279.7,30.6
		c-62.8,53.6-66.1,149.8-9.9,207.9l193.5,199.8c12.5,12.9,32.8,12.9,45.3,0l193.5-199.8C758.4,180.4,755.1,84.2,692.3,30.6
		L692.3,30.6z"/>
	<path class="st0" d="M939.4,700.3c46.7-54.8,38.3-136.3-13.6-186.6L905.5,494l20.3-19.7c51.9-50.2,60.3-131.8,13.6-186.6
		c-53.6-62.8-149.8-66.1-207.9-9.9L531.7,471.3c-12.9,12.5-12.9,32.8,0,45.3l199.8,193.5C789.6,766.4,885.8,763.1,939.4,700.3
		L939.4,700.3z"/>
	<path class="st0" d="M277.7,949.4c54.8,46.7,136.3,38.3,186.6-13.6l19.7-20.3l19.7,20.3c50.2,51.9,131.8,60.3,186.6,13.6
		c62.8-53.6,66.1-149.8,9.9-207.9L506.7,541.7c-12.5-12.9-32.8-12.9-45.3,0L267.9,741.5C211.6,799.6,214.9,895.8,277.7,949.4
		L277.7,949.4z"/>
	<path class="st0" d="M30.6,279.7C-16.1,334.5-7.7,416,44.2,466.3L64.5,486l-20.3,19.7c-51.9,50.2-60.3,131.8-13.6,186.6
		c53.6,62.8,149.8,66.1,207.9,9.9l199.8-193.5c12.9-12.5,12.9-32.8,0-45.3L238.5,269.9C180.4,213.6,84.2,216.9,30.6,279.7
		L30.6,279.7z"/>
</g>
</svg>
